<svg width="26" height="49" viewBox="0 0 50 49" fill="none" xmlns="http://www.w3.org/2000/svg">
<path d="M8.3263 12.478C8.53474 8.72611 9.79279 6.20598 11.2817 4.57973C13.585 2.06403 18.0876 2.01198 19.2036 5.23504C19.9492 7.38806 19.8826 10.2345 18.7609 12.478C16.6739 16.6518 7.80457 21.8691 8.3263 12.478Z" fill="#304057" stroke="#304057" stroke-width="2"/>
<path d="M24.8175 11.4346C25.0259 7.68265 26.284 5.16252 27.7729 3.53627C30.0762 1.02057 34.5788 0.968522 35.6949 4.19158C36.4404 6.3446 36.3738 9.19106 35.2521 11.4346C33.1652 15.6084 24.2958 20.8257 24.8175 11.4346Z" fill="#304057" stroke="#304057" stroke-width="2"/>
<path d="M33.857 19.2602C36.0173 16.1856 38.4174 14.7114 40.541 14.118C43.826 13.2001 47.6756 15.5361 46.9192 18.862C46.4139 21.0837 44.8526 23.4648 42.7145 24.7762C38.7366 27.216 28.4498 26.9561 33.857 19.2602Z" fill="#304057" stroke="#304057" stroke-width="2"/>
<path d="M33.036 33.1786C35.9211 30.771 38.6219 29.9713 40.8267 29.9502C44.2373 29.9175 47.3475 33.1738 45.7527 36.1888C44.6874 38.2028 42.561 40.0963 40.1555 40.807C35.6802 42.1291 25.8145 39.2047 33.036 33.1786Z" fill="#304057" stroke="#304057" stroke-width="2"/>
<path d="M4.44801 23.956C2.80886 24.639 1.87006 25.5269 1.39754 26.4734C-0.293522 29.8606 3.75301 33.2396 7.34635 34.4315C10.1521 35.3622 12.5197 35.9765 13.5215 40.6513C14.0432 47.9555 22.7085 50.0424 24.2737 45.3469C29.491 33.3472 27.4041 27.0864 22.7085 23.4343C18.013 19.7822 10.7087 21.3474 4.44801 23.956Z" fill="#304057" stroke="#304057" stroke-width="2"/>
</svg>
