<svg width="26" height="26" viewBox="0 0 26 26" fill="none" xmlns="http://www.w3.org/2000/svg">
<path d="M24.3547 20.2981L20.2371 16.1805L17.07 14.872C18.1246 13.3724 18.6895 11.5833 18.6875 9.75C18.6875 4.82183 14.6782 0.8125 9.75 0.8125C4.82183 0.8125 0.8125 4.82183 0.8125 9.75C0.8125 14.6782 4.82183 18.6875 9.75 18.6875C11.5993 18.6896 13.4031 18.1149 14.9103 17.0434L16.2154 20.2019L20.3328 24.3197C20.5969 24.5838 20.9104 24.7933 21.2554 24.9362C21.6004 25.0791 21.9702 25.1527 22.3437 25.1527C22.7171 25.1527 23.0869 25.0792 23.4319 24.9363C23.777 24.7934 24.0905 24.5839 24.3546 24.3198C24.6186 24.0558 24.8281 23.7423 24.971 23.3972C25.114 23.0522 25.1875 22.6824 25.1876 22.309C25.1876 21.9355 25.114 21.5657 24.9711 21.2207C24.8282 20.8757 24.6187 20.5622 24.3547 20.2981ZM2.4375 9.75C2.4375 5.71797 5.71797 2.4375 9.75 2.4375C13.782 2.4375 17.0625 5.71797 17.0625 9.75C17.0625 13.782 13.782 17.0625 9.75 17.0625C5.71797 17.0625 2.4375 13.782 2.4375 9.75ZM23.2056 23.1707C22.9768 23.3989 22.6669 23.5271 22.3437 23.5271C22.0206 23.5271 21.7107 23.3989 21.4819 23.1707L17.5935 19.2822L16.3802 16.3453L19.3172 17.5587L23.2057 21.4471C23.4339 21.6759 23.562 21.9858 23.562 22.3089C23.562 22.632 23.4338 22.9419 23.2056 23.1707Z" fill="#304057"/>
</svg>
